<svg width="187" height="46" viewBox="0 0 187 46" fill="none" xmlns="http://www.w3.org/2000/svg">
<path d="M35.8543 46H28.1103L32.2063 26.608H12.6223L8.52625 46H0.846253L10.4463 0.623997H18.1263L14.1583 19.376H33.7423L37.7103 0.623997H45.4543L35.8543 46ZM92.5453 46H84.9933L91.9693 12.976L71.4253 46H65.4733L57.9213 13.232L50.9453 46H43.5213L53.1213 0.623997H62.4013L70.3373 34.928L91.5213 0.623997H102.209L92.5453 46ZM136.931 46H129.123L115.171 11.824L107.939 46H100.259L109.859 0.623997H118.819L131.939 33.2L138.851 0.623997H146.595L136.931 46ZM153.772 38.896H162.476C170.092 38.896 178.796 32.496 178.796 19.504C178.796 12.016 173.996 7.6 166.252 7.6H160.428L153.772 38.896ZM162.348 46H144.684L154.22 0.623997H167.212C179.18 0.623997 186.604 8.048 186.604 19.184C186.604 36.72 174.572 46 162.348 46Z" fill="black"/>
</svg>
