<svg width="320" height="32" viewBox="0 0 320 32" fill="none" xmlns="http://www.w3.org/2000/svg">
<rect width="8" height="8" fill="#E1C8A9"/>
<rect x="8" width="8" height="8" fill="#CCB49A"/>
<rect x="16" width="8" height="8" fill="#CDB79D"/>
<rect x="24" width="8" height="8" fill="#CDB89D"/>
<rect y="8" width="8" height="8" fill="#D3BC9E"/>
<rect x="8" y="8" width="8" height="8" fill="#D4BDA2"/>
<rect x="16" y="8" width="8" height="8" fill="#D6BFA6"/>
<rect x="24" y="8" width="8" height="8" fill="#D8C2A7"/>
<rect y="16" width="8" height="8" fill="#D5BC9E"/>
<rect x="8" y="16" width="8" height="8" fill="#D8C0A3"/>
<rect x="16" y="16" width="8" height="8" fill="#E5CDAF"/>
<rect x="24" y="16" width="8" height="8" fill="#D1BEA2"/>
<rect y="24" width="8" height="8" fill="#BAA488"/>
<rect x="8" y="24" width="8" height="8" fill="#D1B99B"/>
<rect x="16" y="24" width="8" height="8" fill="#D3BEA2"/>
<rect x="24" y="24" width="8" height="8" fill="#D8C3A7"/>
<path d="M41.82 26C42.156 19.616 42.156 12.784 41.82 6.4H46.692C50.108 6.4 53.328 7.268 53.328 11.272C53.328 13.176 51.732 14.716 50.388 15.36C52.432 15.864 54.448 17.32 54.448 20.204C54.448 24.88 50.612 26 46.608 26H41.82ZM46.636 14.632C48.344 14.632 50.416 14.016 50.416 11.272C50.416 8.388 48.344 8.024 46.636 8.024H45.264L45.152 14.632H46.636ZM46.776 24.376C48.82 24.376 51.34 23.592 51.34 20.204C51.34 16.788 48.624 16.256 46.636 16.256H45.124C45.124 19.196 45.18 21.436 45.264 24.376H46.776ZM57.3786 26C57.7146 19.392 57.7146 12.868 57.3786 6.4H60.8506C60.6826 11.244 60.5146 16.172 60.5986 20.988L69.5306 6.4H72.3306C72.0786 12.98 72.1066 19.504 72.3306 26H68.8586C69.1386 20.988 69.2506 15.892 69.1106 10.992L59.9826 26H57.3786ZM90.7003 6.4C90.4483 12.952 90.5043 19.504 90.7003 26H87.2563C87.3963 22.724 87.4803 19.728 87.4803 16.76H79.3043C79.3323 19.7 79.3883 22.668 79.5003 26H75.9723C76.3363 19.392 76.3363 12.84 75.9723 6.4H79.5003C79.3883 9.508 79.3323 12.308 79.3043 15.052H87.4803C87.4803 12.28 87.3963 9.452 87.2563 6.4H90.7003ZM109.075 6.4C108.823 12.952 108.879 19.504 109.075 26H105.631C105.771 22.724 105.855 19.728 105.855 16.76H97.6793C97.7073 19.7 97.7633 22.668 97.8753 26H94.3473C94.7113 19.392 94.7113 12.84 94.3473 6.4H97.8753C97.7633 9.508 97.7073 12.308 97.6793 15.052H105.855C105.855 12.28 105.771 9.452 105.631 6.4H109.075ZM121.598 26.168C115.074 26.168 112.162 21.268 112.162 16.2C112.162 11.132 115.074 6.232 121.598 6.232C128.094 6.232 131.006 11.132 131.006 16.2C131.006 21.268 128.094 26.168 121.598 26.168ZM121.598 24.628C126.274 24.628 127.562 19.98 127.562 16.2C127.562 12.392 126.274 7.744 121.598 7.744C117.062 7.744 115.634 12.112 115.634 16.2C115.634 19.98 116.922 24.628 121.598 24.628ZM134.078 26C134.414 19.616 134.414 12.784 134.078 6.4H138.95C142.366 6.4 145.586 7.268 145.586 11.272C145.586 13.176 143.99 14.716 142.646 15.36C144.69 15.864 146.706 17.32 146.706 20.204C146.706 24.88 142.87 26 138.866 26H134.078ZM138.894 14.632C140.602 14.632 142.674 14.016 142.674 11.272C142.674 8.388 140.602 8.024 138.894 8.024H137.522L137.41 14.632H138.894ZM139.034 24.376C141.078 24.376 143.598 23.592 143.598 20.204C143.598 16.788 140.882 16.256 138.894 16.256H137.382C137.382 19.196 137.438 21.436 137.522 24.376H139.034ZM158.4 26.168C151.988 26.168 149.076 21.828 149.076 16.2C149.076 10.852 152.268 6.232 158.372 6.232C161.284 6.232 163.524 7.212 165.036 8.78L163.44 10.824C161.984 8.78 160.668 7.744 158.372 7.744C154.004 7.744 152.66 12.028 152.66 16.2C152.66 20.344 153.948 24.628 158.596 24.628C160.752 24.628 162.46 23.536 163.804 22.052L165.176 23.62C163.664 25.16 161.424 26.168 158.4 26.168ZM167.683 26C168.019 19.476 168.047 12.896 167.683 6.4H171.183C171.043 9.368 170.959 12.336 170.931 15.332C173.423 12.7 176.783 8.304 178.099 6.4H182.103C180.871 7.436 174.375 14.408 173.619 15.332C179.835 16.368 179.471 24.404 183.531 24.908V25.86C175.803 27.596 177.119 17.208 170.931 16.228C170.931 19.504 171.015 22.752 171.183 26H167.683ZM184.8 26C185.136 19.392 185.136 12.868 184.8 6.4H188.272C188.104 11.244 187.936 16.172 188.02 20.988L196.952 6.4H199.752C199.5 12.98 199.528 19.504 199.752 26H196.28C196.56 20.988 196.672 15.892 196.532 10.992L187.404 26H184.8ZM203.394 26C203.73 19.392 203.73 12.868 203.394 6.4H206.922C206.726 11.244 206.558 16.172 206.642 20.988L215.574 6.4H218.374C218.15 12.98 218.178 19.504 218.374 26H214.902C215.182 20.988 215.266 15.892 215.154 10.992L206.026 26H203.394ZM207.678 1.248C209.638 3.012 213.502 3.292 216.022 1.472L216.89 2.368C213.95 5.14 208.658 5.392 205.942 3.824L207.678 1.248ZM228.468 26C228.804 19.476 228.832 12.896 228.468 6.4H231.968C231.828 9.368 231.744 12.336 231.716 15.332C234.208 12.7 237.568 8.304 238.884 6.4H242.888C241.656 7.436 235.16 14.408 234.404 15.332C240.62 16.368 240.256 24.404 244.316 24.908V25.86C236.588 27.596 237.904 17.208 231.716 16.228C231.716 19.504 231.8 22.752 231.968 26H228.468ZM255.246 19.308C254.238 16.368 253.118 13.372 251.998 10.572C251.018 13.232 249.842 16.368 248.834 19.308H255.246ZM243.486 26C245.978 20.008 248.862 13.624 250.934 7.996C250.682 7.436 250.458 6.904 250.178 6.4H253.874C255.526 11.244 258.998 20.904 261.182 26H257.458C256.982 24.46 256.45 22.78 255.862 21.044H248.274C247.686 22.836 247.182 24.572 246.874 26H243.486ZM262.73 26C263.066 19.42 263.066 12.84 262.73 6.4H267.266C271.242 6.4 274.798 7.688 274.798 12.364C274.798 17.04 271.298 18.412 267.406 18.412H266.062C266.09 20.904 266.146 23.48 266.23 26H262.73ZM267.434 16.76C269.45 16.76 271.746 15.78 271.746 12.364C271.746 9.004 269.45 8.024 267.434 8.024H266.202C266.09 10.936 266.062 13.876 266.062 16.76H267.434ZM276.894 26C277.258 19.532 277.258 13.008 276.894 6.4H280.394C280.31 8.948 280.254 11.468 280.226 13.988H282.298C286.19 13.988 289.942 15.304 289.942 20.008C289.942 24.712 286.134 26 282.13 26H276.894ZM282.354 24.376C284.37 24.376 286.638 23.396 286.638 20.008C286.638 16.592 284.37 15.612 282.354 15.612H280.226C280.198 18.524 280.254 21.436 280.338 24.376H282.354ZM296.006 24.264C299.03 24.264 302.166 24.152 304.602 23.396L304.266 26H292.59C292.898 19.392 292.898 12.84 292.59 6.4H303.79L304.042 8.864C301.578 8.304 298.89 8.136 296.006 8.136C295.922 9.844 295.894 12.28 295.866 14.828H301.97L301.634 16.536H295.894C295.894 19.476 295.95 22.36 296.006 24.264ZM307.273 26C307.609 19.42 307.609 12.84 307.273 6.4H311.809C315.785 6.4 319.341 7.688 319.341 12.364C319.341 17.04 315.841 18.412 311.949 18.412H310.605C310.633 20.904 310.689 23.48 310.773 26H307.273ZM311.977 16.76C313.993 16.76 316.289 15.78 316.289 12.364C316.289 9.004 313.993 8.024 311.977 8.024H310.745C310.633 10.936 310.605 13.876 310.605 16.76H311.977Z" fill="black"/>
</svg>
